0
SECTION
2
HEADER
9
$INSUNITS
70
4
9
$ACADVER
1
AC1014
9
$HANDSEED
5
FFFF
0
ENDSEC
0
SECTION
2
TABLES
0
TABLE
2
VPORT
5
8
100
AcDbSymbolTable
0
ENDTAB
0
TABLE
2
LTYPE
5
5
100
AcDbSymbolTable
0
LTYPE
5
14
100
AcDbSymbolTableRecord
100
AcDbLinetypeTableRecord
2
BYBLOCK
70
0
0
LTYPE
5
15
100
AcDbSymbolTableRecord
100
AcDbLinetypeTableRecord
2
BYLAYER
70
0
0
ENDTAB
0
TABLE
2
LAYER
5
2
100
AcDbSymbolTable
70
2
0
LAYER
5
50
100
AcDbSymbolTableRecord
100
AcDbLayerTableRecord
2
0
70
0
6
CONTINUOUS
0
ENDTAB
0
TABLE
2
STYLE
5
3
100
AcDbSymbolTable
70
1
0
STYLE
5
11
100
AcDbSymbolTableRecord
100
AcDbTextStyleTableRecord
2
STANDARD
70
0
0
ENDTAB
0
TABLE
2
VIEW
5
6
100
AcDbSymbolTable
70
0
0
ENDTAB
0
TABLE
2
UCS
5
7
100
AcDbSymbolTable
70
0
0
ENDTAB
0
TABLE
2
APPID
5
9
100
AcDbSymbolTable
70
2
0
APPID
5
12
100
AcDbSymbolTableRecord
100
AcDbRegAppTableRecord
2
ACAD
70
0
0
ENDTAB
0
TABLE
2
DIMSTYLE
5
A
100
AcDbSymbolTable
70
1
0
ENDTAB
0
TABLE
2
BLOCK_RECORD
5
1
100
AcDbSymbolTable
70
1
0
BLOCK_RECORD
5
1F
100
AcDbSymbolTableRecord
100
AcDbBlockTableRecord
2
*MODEL_SPACE
0
BLOCK_RECORD
5
1B
100
AcDbSymbolTableRecord
100
AcDbBlockTableRecord
2
*PAPER_SPACE
0
ENDTAB
0
ENDSEC
0
SECTION
2
BLOCKS
0
BLOCK
5
20
100
AcDbEntity
100
AcDbBlockBegin
2
*MODEL_SPACE
0
ENDBLK
5
21
100
AcDbEntity
100
AcDbBlockEnd
0
BLOCK
5
1C
100
AcDbEntity
100
AcDbBlockBegin
2
*PAPER_SPACE
0
ENDBLK
5
1D
100
AcDbEntity
100
AcDbBlockEnd
0
ENDSEC
0
SECTION
2
ENTITIES
0
CIRCLE
5
100
100
AcDbEntity
8
0
100
AcDbCircle
10
158.32405895065028
20
62.196990675724692
30
0
40
2
0
CIRCLE
5
101
100
AcDbEntity
8
0
100
AcDbCircle
10
126.50425379725569
20
30.377185522330041
30
0
40
2
0
CIRCLE
5
102
100
AcDbEntity
8
0
100
AcDbCircle
10
94.684448643861032
20
-1.4426196310646056
30
3.944304526105059e-30
40
2
0
CIRCLE
5
103
100
AcDbEntity
8
0
100
AcDbCircle
10
62.864643490466428
20
-33.262424784459235
30
3.944304526105059e-30
40
2
0
CIRCLE
5
104
100
AcDbEntity
8
0
100
AcDbCircle
10
31.044838337071781
20
-65.082229937853882
30
-3.944304526105059e-30
40
2
0
CIRCLE
5
105
100
AcDbEntity
8
0
100
AcDbCircle
10
-79.999999999999886
20
-66.11234964916423
30
3.944304526105059e-30
40
2
0
CIRCLE
5
106
100
AcDbEntity
8
0
100
AcDbCircle
10
-128.24999999999989
20
-66.11234964916423
30
-3.944304526105059e-30
40
2
0
CIRCLE
5
107
100
AcDbEntity
8
0
100
AcDbCircle
10
-176.49999999999991
20
-66.112349649164258
30
-3.944304526105059e-30
40
2
0
CIRCLE
5
108
100
AcDbEntity
8
0
100
AcDbCircle
10
-176.49999999999991
20
-28.112645407796588
30
-1.1832913578315177e-29
40
2
0
CIRCLE
5
109
100
AcDbEntity
8
0
100
AcDbCircle
10
-176.49999999999994
20
21.887354592203412
30
0
40
2
0
CIRCLE
5
110
100
AcDbEntity
8
0
100
AcDbCircle
10
168.50000000000006
20
71.887349272419016
30
-1.9721522630525295e-30
40
2
0
CIRCLE
5
111
100
AcDbEntity
8
0
100
AcDbCircle
10
119.21428571428575
20
71.887350032388213
30
0
40
2
0
CIRCLE
5
112
100
AcDbEntity
8
0
100
AcDbCircle
10
69.928571428571502
20
71.88735079235741
30
-7.8886090522101181e-30
40
2
0
CIRCLE
5
113
100
AcDbEntity
8
0
100
AcDbCircle
10
20.642857142857185
20
71.887351552326621
30
1.9721522630525295e-30
40
2
0
CIRCLE
5
114
100
AcDbEntity
8
0
100
AcDbCircle
10
-28.642857142857103
20
71.887352312295818
30
-5.9164567891575885e-30
40
2
0
CIRCLE
5
115
100
AcDbEntity
8
0
100
AcDbCircle
10
-77.928571428571388
20
71.887353072265014
30
-1.9721522630525295e-30
40
2
0
CIRCLE
5
116
100
AcDbEntity
8
0
100
AcDbCircle
10
-127.21428571428568
20
71.887353832234211
30
0
40
2
0
CIRCLE
5
117
100
AcDbEntity
8
0
100
AcDbCircle
10
-176.5
20
71.887354592203408
30
-1.9721522630525295e-30
40
2
0
LWPOLYLINE
5
118
100
AcDbEntity
8
0
100
AcDbPolyline
90
5
70
1
43
0.0
10
73.529437251522879
20
65.887650350835742
10
-102.49999999999984
20
65.887650350835756
10
-102.49999999999987
20
-60.112349649164187
10
27.529437251522921
20
-60.112349649164187
10
73.529437251522864
20
-14.112349649164244
0
LWPOLYLINE
5
119
100
AcDbEntity
8
0
100
AcDbPolyline
90
4
70
1
43
0.0
10
32.500000000000036
20
-72.112349649164202
10
-182.49999999999989
20
-72.112349649164258
10
-182.49999999999997
20
77.887349649164278
10
182.49999999999997
20
77.887650350835742
0
CIRCLE
5
120
100
AcDbEntity
8
0
100
AcDbCircle
10
-137.50000000000006
20
-21.112349649164219
30
1.4643529596066941e-15
40
2.3012399999999973
0
CIRCLE
5
121
100
AcDbEntity
8
0
100
AcDbCircle
10
-137.50000000000006
20
-21.112349649164219
30
1.4643529596066941e-15
40
5.4999999999999964
0
CIRCLE
5
122
100
AcDbEntity
8
0
100
AcDbCircle
10
16.50000000000011
20
-66.112349649164202
30
-3.944304526105059e-30
40
2
0
CIRCLE
5
123
100
AcDbEntity
8
0
100
AcDbCircle
10
-31.749999999999883
20
-66.112349649164216
30
3.944304526105059e-30
40
2
0
ENDSEC
0
SECTION
2
OBJECTS
0
DICTIONARY
5
C
100
AcDbDictionary
3
ACAD_GROUP
350
D
3
ACAD_MLINESTYLE
350
17
0
DICTIONARY
5
D
100
AcDbDictionary
0
DICTIONARY
5
1A
330
C
100
AcDbDictionary
0
DICTIONARY
5
17
100
AcDbDictionary
0
ENDSEC
0
EOF
